PathFileType	4	(X/Y/Z)	C:/Users/opensim2020/Desktop/walking_exp_matlab/subject01_walking07_straight_02.trc	
DataRate	CameraRate	NumFrames	NumMarkers	Units	OrigDataRate	OrigDataStartFrame	OrigNumFrames	
100.00	100.00	4	43	mm	100.00	1518	178	
Frame#	Time	LFHD			RFHD			LBHD			RBHD			C7			T10			CLAV			STRN			RBAK			LSHO			LUPA			LELB			LFRM			LWRA			LWRB			LFIN			RSHO			RUPA			RELB			RFRM			RWRA			RWRB			RFIN			LASI			RASI			LPSI			RPSI			LTHI			LKNE			LTIB			LANK			LHEE			LTOE			RTHI			RKNE			RTIB			RANK			RHEE			RTOE			*39			*40			*41			*42			
		X1	Y1	Z1	X2	Y2	Z2	X3	Y3	Z3	X4	Y4	Z4	X5	Y5	Z5	X6	Y6	Z6	X7	Y7	Z7	X8	Y8	Z8	X9	Y9	Z9	X10	Y10	Z10	X11	Y11	Z11	X12	Y12	Z12	X13	Y13	Z13	X14	Y14	Z14	X15	Y15	Z15	X16	Y16	Z16	X17	Y17	Z17	X18	Y18	Z18	X19	Y19	Z19	X20	Y20	Z20	X21	Y21	Z21	X22	Y22	Z22	X23	Y23	Z23	X24	Y24	Z24	X25	Y25	Z25	X26	Y26	Z26	X27	Y27	Z27	X28	Y28	Z28	X29	Y29	Z29	X30	Y30	Z30	X31	Y31	Z31	X32	Y32	Z32	X33	Y33	Z33	X34	Y34	Z34	X35	Y35	Z35	X36	Y36	Z36	X37	Y37	Z37	X38	Y38	Z38	X39	Y39	Z39	X40	Y40	Z40	X41	Y41	Z41	X42	Y42	Z42	X43	Y43	Z43	

90	0.890	-1024.36914	108.58485	1662.24243	-1134.44666	74.97868	1668.44824	-1054.21191	220.81860	1615.80115	-1170.88989	189.24567	1621.96838	-1087.56079	249.22163	1421.17529	-1088.57202	280.50647	1127.58972	-1086.31494	104.81587	1355.33105	-1077.96704	59.10017	1201.16309	-1157.67419	301.11911	1224.82556	-925.12256	165.53624	1387.05664	-833.68182	183.09157	1204.78955	-820.08484	175.46411	1051.39319	-790.56702	91.65881	972.28650	-802.81403	-33.69271	913.21448	-780.37842	11.25624	880.90521	-764.42438	-64.87609	849.24890	-1239.91016	166.67581	1381.66040	-1325.37158	251.84073	1183.87219	-1321.75757	266.39026	1061.90271	-1351.17126	267.67166	942.36353	-1334.95935	215.35675	810.14380	-1371.04590	260.87848	820.58478	-1361.22083	245.97438	733.74451	-970.15948	113.16413	920.76709	-1187.13196	98.11557	926.21265	-1037.66895	295.20605	932.26416	-1183.08435	284.06476	931.37048	-924.23853	205.44641	592.22552	-938.00336	249.46124	461.57703	-930.23065	378.50516	319.49197	-980.81769	503.76755	136.99118	-1033.41736	554.37189	135.19127	-982.05853	395.12543	35.95654	-1253.31360	77.86216	603.11993	-1224.64917	20.94074	458.02454	-1237.02612	33.92567	283.06366	-1197.88452	15.79701	75.48512	-1148.09546	61.07674	34.94075	-1194.55127	-126.74632	42.55389	-1114.18347	91.62577	1701.91748	-3102.04150	1973.18140	1023.45184	-3140.59277	2012.47021	1022.11285			 
91	0.900	-1026.50305	98.42068	1662.86743	-1136.44995	64.52610	1669.03357	-1056.68506	210.60480	1616.44287	-1173.31958	178.66495	1622.62830	-1089.83447	238.78777	1421.89661	-1090.28442	269.83871	1128.03674	-1088.34021	94.39306	1356.11523	-1079.70605	49.09853	1202.10071	-1159.86731	290.42654	1225.34839	-927.32361	155.44464	1387.89172	-835.80133	174.21030	1205.69458	-822.11407	167.51752	1052.36890	-792.57800	85.20274	971.62347	-804.49628	-39.08264	910.30585	-782.65210	6.59904	878.64709	-766.01526	-68.66455	845.72064	-1241.91650	156.13617	1381.92175	-1328.10681	239.50700	1183.50659	-1324.07483	253.53297	1061.40393	-1353.25989	253.80618	941.87170	-1336.62769	200.77859	810.00409	-1373.01086	246.22928	820.16626	-1363.08667	230.65636	733.41345	-971.97656	101.87778	921.10229	-1188.51917	86.76250	927.52631	-1038.52075	283.64957	932.41022	-1183.96338	272.82227	932.63263	-925.67310	189.98309	591.55682	-938.37439	231.89372	460.58755	-930.11292	365.74902	322.70557	-979.86334	496.51440	143.59897	-1033.20911	546.05896	144.36591	-982.05402	394.47025	36.15945	-1254.16223	68.89924	603.37286	-1225.29517	11.79199	457.95007	-1238.37524	26.19596	282.53668	-1197.43494	14.04667	75.11132	-1148.27930	60.15281	35.35981	-1194.64404	-127.67123	40.50418	-1116.27869	80.88700	1702.60242	-3102.16650	1972.93762	1024.03601	-3140.60352	2012.61230	1022.25433			 
92	0.910	-1028.75745	88.37267	1663.58215	-1138.66858	54.09988	1669.73193	-1059.19824	200.44168	1617.14221	-1175.82593	168.17635	1623.27844	-1092.00171	228.57657	1422.42590	-1091.96863	259.23813	1128.67688	-1090.35291	83.96078	1357.02283	-1081.25305	38.42205	1203.19312	-1161.82739	279.67557	1225.73621	-929.48529	145.38605	1388.82483	-838.23462	165.00250	1206.69971	-824.03882	159.26326	1053.66211	-794.61670	78.71430	971.21112	-806.41357	-44.04020	907.18622	-784.93011	2.35094	876.27448	-767.95026	-71.81264	841.87903	-1244.10193	145.49982	1382.38660	-1330.31189	227.29570	1183.30591	-1326.33411	240.53223	1061.16260	-1355.27844	239.81151	941.60266	-1338.46802	185.84450	810.14752	-1375.25903	230.96184	820.03308	-1365.16553	214.94479	733.37885	-974.02576	90.92191	921.57385	-1189.97668	75.58276	928.85077	-1039.51904	272.22705	932.94507	-1184.99976	262.50046	934.53845	-926.60773	173.74622	590.98773	-938.03473	213.92873	459.78644	-930.25867	351.93304	325.99271	-979.31085	487.57477	150.67120	-1033.51331	535.83777	153.90999	-982.32294	393.37729	36.35894	-1254.41150	59.51583	603.57129	-1225.96362	3.29474	457.32162	-1239.68018	20.25237	281.49454	-1197.15271	12.94965	74.99728	-1148.07422	60.16034	35.49585	-1194.57861	-128.60211	39.19719	-1118.41406	70.48780	1703.18384	-3101.91846	1973.11548	1023.31909	-3140.65601	2012.55554	1022.00702			 
93	0.920	-1030.74731	78.28750	1664.75012	-1140.82104	43.73318	1670.43628	-1061.20544	190.51939	1617.88574	-1178.16553	157.68280	1623.89331	-1094.23999	218.60585	1422.94153	-1093.48071	248.66396	1129.32861	-1092.18567	73.66915	1358.04773	-1082.65344	27.78815	1204.31873	-1163.68005	268.88666	1226.12354	-931.58435	135.27232	1389.91797	-840.24689	155.85938	1207.95862	-825.56262	151.44519	1055.12720	-796.74121	72.34197	970.91815	-808.42023	-48.72201	903.94904	-787.26276	-1.52404	873.94885	-770.16187	-74.80907	837.66119	-1246.02393	134.89490	1383.04712	-1332.58069	214.96696	1183.36536	-1328.62012	227.41751	1061.11218	-1357.52307	225.52991	941.62207	-1340.42334	170.51154	810.64087	-1377.31335	215.77084	820.15363	-1367.33667	198.85974	733.63513	-976.32379	80.05409	922.33105	-1191.76538	64.68819	930.03448	-1040.76514	261.17941	933.77625	-1186.32507	251.21593	936.39044	-927.27954	156.74614	590.26123	-937.31830	195.23471	459.12402	-930.07104	337.41965	329.70432	-978.62024	477.71399	157.91469	-1034.04565	523.80878	163.58925	-982.64752	392.34302	36.37777	-1255.09961	49.75849	603.86542	-1226.87268	-4.29934	456.38956	-1240.90222	16.13136	280.60883	-1197.05188	11.88628	74.77818	-1148.23438	59.70500	35.71836	-1193.78955	-129.46915	38.05618	-1120.70203	60.28572	1703.94556	-3101.91040	1973.09521	1023.31610	-3140.58960	2012.50928	1021.97778			 
